<svg id="Layer_1" data-name="Layer 1" xmlns="http://www.w3.org/2000/svg" viewBox="0 0 100 100"><defs><style>.cls-1{fill:#4f2e1e;}.cls-2{fill:#f2f2f2;}</style></defs><rect class="cls-1" width="100" height="100"/><path class="cls-2" d="M38.54,38.35a7.74,7.74,0,0,0,.59-1.78c.07-.45,0-.7-.21-.74a8.69,8.69,0,0,1,2.15.27,5.78,5.78,0,0,1,1.35.56,3,3,0,0,1,.94.83q-1.66,2.63-3.14,5.06c-1,1.61-1.92,3.19-2.82,4.71L36.32,49.1c-.53.9-1.12,1.93-1.76,3.08s-1.3,2.36-2,3.6-1.21,2.4-1.65,3.45a13.86,13.86,0,0,0-.86,2.6c-.14.68,0,1,.38,1A3.12,3.12,0,0,0,32.3,62a15.24,15.24,0,0,0,2.05-2,22.29,22.29,0,0,0,1.82-2.43,12.44,12.44,0,0,0,1.16-2.16l1.24.48a32.47,32.47,0,0,1-1.87,2.77c-.53.7-1.09,1.38-1.68,2.05a14.7,14.7,0,0,1-1.85,1.78,10.56,10.56,0,0,1-2,1.27,4.88,4.88,0,0,1-2.1.48,1.92,1.92,0,0,1-1.73-.69A2.78,2.78,0,0,1,27,61.83a8.67,8.67,0,0,1,.58-2.34c.32-.85.68-1.68,1.07-2.49s.77-1.54,1.14-2.19.64-1.12.8-1.42l1.58-2.86,1.64-3c.56-1,1.09-2,1.61-2.93l1.48-2.72c-1.41,1.46-3,3.1-4.61,4.94s-3.43,3.73-5.3,5.67a3.7,3.7,0,0,1,1.45,1.19,2.78,2.78,0,0,1,.49,1.37,2.81,2.81,0,0,1-.3,1.37,4.26,4.26,0,0,1-.86,1.19,4.07,4.07,0,0,1-1.23.82,3.15,3.15,0,0,1-1.39.26,1.52,1.52,0,0,0,.36-.68,2.74,2.74,0,0,0,.09-1A4.72,4.72,0,0,0,25.36,56a4.29,4.29,0,0,0-.61-1.18q-2,1.94-4,3.65a39.2,39.2,0,0,1-4,3A22.18,22.18,0,0,1,13,63.51a9.36,9.36,0,0,1-3.57.76,5.13,5.13,0,0,1-3.2-.85A3,3,0,0,1,5,61.28a5.34,5.34,0,0,1,.64-2.85A9.72,9.72,0,0,1,8,55.49,15.57,15.57,0,0,1,12,53a17.64,17.64,0,0,1,5.45-1.37,30.64,30.64,0,0,1,5.17-.17,12.63,12.63,0,0,1,3.43.62c1.54-1.52,3-3,4.45-4.59s2.69-2.94,3.81-4.21,2.05-2.35,2.79-3.24ZM11.2,62.23a7,7,0,0,0,2.67-.64A19.75,19.75,0,0,0,17,59.82a43.34,43.34,0,0,0,3.47-2.62q1.8-1.48,3.6-3.18a6.42,6.42,0,0,0-2.58-1.36,10.09,10.09,0,0,0-4.14-.13,8.73,8.73,0,0,0-3.12,1,12,12,0,0,0-2.49,1.89A9.72,9.72,0,0,0,10,57.74a6.33,6.33,0,0,0-.76,2.18,2.34,2.34,0,0,0,.33,1.65A1.79,1.79,0,0,0,11.2,62.23Z"/><path class="cls-2" d="M63.35,51.11a7,7,0,0,1-1.27,1.61,5.46,5.46,0,0,1-3,1.37,10,10,0,0,1-1.64.06c-1.07,1.74-1.88,3.14-2.45,4.21s-1,1.88-1.23,2.41a7.77,7.77,0,0,0-.67,1.67c-.1.44,0,.65.26.65a2.48,2.48,0,0,0,1.4-.57,9,9,0,0,0,1.54-1.45,14.84,14.84,0,0,0,1.41-1.94,15.67,15.67,0,0,0,1-2,4.32,4.32,0,0,0,.38-1.59.74.74,0,0,0-.52-.82h3.08c-.46.88-.93,1.72-1.42,2.52s-1,1.55-1.52,2.27a21.19,21.19,0,0,1-1.44,1.75,15.57,15.57,0,0,1-1.63,1.53,8.59,8.59,0,0,1-1.75,1.09,4.29,4.29,0,0,1-1.76.41c-.56,0-.91-.16-1.06-.47a2,2,0,0,1-.05-1.27,6.43,6.43,0,0,1-1.82,1.25,5.09,5.09,0,0,1-2.13.45,4.8,4.8,0,0,1-2.25-.55,4.61,4.61,0,0,1-1.75-1.56,4.82,4.82,0,0,1-.77-2.43A6.91,6.91,0,0,1,43,56.55a8.09,8.09,0,0,1,2.13-2.95,10.21,10.21,0,0,1,2.41-1.52A9.36,9.36,0,0,1,49,51.63a6.59,6.59,0,0,1,1.38-.21,7.36,7.36,0,0,1-.64-.71,5.59,5.59,0,0,1-.83-1.51,6.12,6.12,0,0,1,.37-5.06,8.31,8.31,0,0,1,2.18-2.94,8.16,8.16,0,0,1,2.86-1.62,6.27,6.27,0,0,1,2.93-.22,4.31,4.31,0,0,1,2.42,1.28,4.38,4.38,0,0,1,1.75-1.25,2.62,2.62,0,0,1,2.13.25c-.25,0-.54.26-.85.79s-.68,1.2-1.11,2-.9,1.65-1.42,2.56a16.17,16.17,0,0,1-1.73,2.49,7.83,7.83,0,0,1-2.11,1.79,3.79,3.79,0,0,1-2.52.45,1.78,1.78,0,0,0,1.32-.95,17.69,17.69,0,0,0,1.27-2.24c.42-.88.87-1.8,1.33-2.77a15.18,15.18,0,0,1,1.52-2.56A2.34,2.34,0,0,0,57.73,41a4.35,4.35,0,0,0-1.75.78,8.84,8.84,0,0,0-1.71,1.66,10.44,10.44,0,0,0-1.42,2.46,8.92,8.92,0,0,0-.75,2.91,6.72,6.72,0,0,0,.19,2.08,4.48,4.48,0,0,0,.37.89,6.39,6.39,0,0,0,.5.74,5.37,5.37,0,0,0-2.18.59,8.52,8.52,0,0,0-2,1.39,8.75,8.75,0,0,0-1.93,2.63,8.65,8.65,0,0,0-1.24,4.56,1.68,1.68,0,0,0,1.87,1.64,3.27,3.27,0,0,0,2.27-1A10,10,0,0,0,51.78,60c.11-.33.24-.67.38-1a12.11,12.11,0,0,1,.52-1.16,6.32,6.32,0,0,0,.31-2.2c-.05-.63-.29-1-.73-1.12h2.22l.31-.52a14.18,14.18,0,0,0-2.41-.07,3.6,3.6,0,0,0-2,.76A3.82,3.82,0,0,1,52,53.46a12.61,12.61,0,0,1,2.43-.71c.88-.17,1.81-.31,2.77-.41s1.85-.21,2.68-.32,1.56-.22,2.19-.34A2.43,2.43,0,0,0,63.35,51.11Z"/><path class="cls-2" d="M76.58,48a3.73,3.73,0,0,1-2.46-.28A2.4,2.4,0,0,1,73,46.22a4.65,4.65,0,0,1,0-2.34,8.12,8.12,0,0,1,1.21-2.67,13,13,0,0,1,2.32-2.54,12.2,12.2,0,0,1,3.35-2,14.57,14.57,0,0,1,4.31-1,16.3,16.3,0,0,1,5.2.51,7.31,7.31,0,0,1,4.07,2.28A6.85,6.85,0,0,1,95,42.3,11.94,11.94,0,0,1,94.31,47a24.61,24.61,0,0,1-2.43,5.1A29.41,29.41,0,0,1,88.1,57a28.26,28.26,0,0,1-4.76,4A22.08,22.08,0,0,1,78,63.63a13,13,0,0,1-5.5.64,10.44,10.44,0,0,1-4.7-1.44,6.26,6.26,0,0,1-2.37-2.58,4.76,4.76,0,0,1-.35-3,5.62,5.62,0,0,1,1.42-2.74,6.79,6.79,0,0,1,2.91-1.79,8,8,0,0,1,4.12-.1c-.3,0-.7.23-1.21.75a10,10,0,0,0-1.47,2A15.54,15.54,0,0,0,69.65,58a6.61,6.61,0,0,0-.39,2.62,3,3,0,0,0,.9,2,3.76,3.76,0,0,0,2.72.81,9,9,0,0,0,4-1.07,22.63,22.63,0,0,0,4.19-2.84,33.79,33.79,0,0,0,4-4,41.2,41.2,0,0,0,3.37-4.68,31.6,31.6,0,0,0,2.45-4.75A16.17,16.17,0,0,0,92,41.8a5.42,5.42,0,0,0-.51-3.24A3.31,3.31,0,0,0,89,36.93a10.3,10.3,0,0,0-4.83.16A10.62,10.62,0,0,0,80.57,39a11.15,11.15,0,0,0-2.5,2.79,14.45,14.45,0,0,0-1.43,3,7.52,7.52,0,0,0-.47,2.36C76.17,47.7,76.31,48,76.58,48Zm7-10a7.83,7.83,0,0,1,2.18.26,7.06,7.06,0,0,1,1.39.57,3.21,3.21,0,0,1,.93.84q-.72,1.07-1.8,2.61l-2.32,3.35q-1.25,1.8-2.58,3.76c-.89,1.3-1.75,2.58-2.57,3.82s-1.58,2.44-2.28,3.56-1.3,2.1-1.77,2.94a13.3,13.3,0,0,0-1,2q-.26.75.09.75c-.88,0-1.37-.33-1.48-1a5.67,5.67,0,0,1,.42-2.6,24.53,24.53,0,0,1,1.73-3.71c.78-1.39,1.61-2.82,2.51-4.3s1.81-2.94,2.71-4.38,1.68-2.76,2.35-3.95a21,21,0,0,0,1.46-3C83.85,38.77,83.85,38.25,83.55,38Z"/></svg>